PathFileType	4	(X/Y/Z)	./resultDataOpenSim/trcMotMarkerGrf/sub06/qtm-02-07.trc
DataRate	CameraRate	NumFrames	NumMarkers	Units	OrigDataRate	OrigDataStartFrame	OrigNumFrames
250.000000	250.000000	14	24	m	250.000000	186	494
Frame#	Time	L.Toe.Tip			R.Toe.Tip			L.Ankle.Lat			R.Ankle.Lat			L.Ankle.Med			R.Ankle.Med			L.Heel			R.Heel			L.Knee.Lat			R.Knee.Lat			L.Knee.Med			R.Knee.Med			L.Thigh.Upper			R.Thigh.Upper			L.ASIS			R.ASIS			V.Sacral			L.Acromium			R.Acromium			C7			L.Elbow			R.Elbow			L.Wrist.Lat			R.Wrist.Lat
		X1	Y1	Z1	X2	Y2	Z2	X3	Y3	Z3	X4	Y4	Z4	X5	Y5	Z5	X6	Y6	Z6	X7	Y7	Z7	X8	Y8	Z8	X9	Y9	Z9	X10	Y10	Z10	X11	Y11	Z11	X12	Y12	Z12	X13	Y13	Z13	X14	Y14	Z14	X15	Y15	Z15	X16	Y16	Z16	X17	Y17	Z17	X18	Y18	Z18	X19	Y19	Z19	X20	Y20	Z20	X21	Y21	Z21	X22	Y22	Z22	X23	Y23	Z23	X24	Y24	Z24

186	0.74	0.054733471	0.010035143	-0.015765156	-0.42851579	0.091876588	0.14568386	-0.066887063	0.040920671	-0.043236456	-0.44822865	0.22876029	0.17293247	-0.071060841	0.055731994	0.044227374	-0.41081697	0.22021988	0.091671527	-0.14509042	0.015350948	-0.0019541953	-0.48044242	0.27086966	0.11086622	0.024951008	0.40291272	-0.066171528	-0.10428562	0.37254008	0.2126662	-0.0048296654	0.40387297	0.052283392	-0.10876711	0.35703489	0.078535744	-0.11168035	0.77631592	-0.14009714	-0.17177862	0.73348484	0.19835588	-0.052786934	0.81165581	-0.084917428	-0.076541498	0.79332586	0.16094134	-0.24986559	0.88219521	0.030897074	-0.12586656	1.2799854	-0.15757866	-0.12928294	1.2828892	0.2070703	-0.20640929	1.3201083	0.022497249	-0.19890874	0.97004002	-0.19811041	-0.20490606	0.97246086	0.28138991	-0.081270826	0.75855407	-0.23849107	-0.031455526	0.79603041	0.30072327
187	0.744	0.054704517	0.010041159	-0.015784803	-0.41011383	0.092265878	0.1460696	-0.066904992	0.040977577	-0.043214416	-0.43264045	0.2285123	0.17278443	-0.071212382	0.055823651	0.04427684	-0.39515063	0.22055753	0.091438361	-0.14507384	0.015452996	-0.0018150932	-0.46584799	0.26999622	0.11080257	0.026080452	0.40285779	-0.066071434	-0.090812258	0.37611642	0.21263768	-0.0033586094	0.40407542	0.052347503	-0.094767062	0.36004107	0.07824714	-0.10697207	0.77752199	-0.1404884	-0.16544874	0.73583861	0.19825867	-0.047246656	0.81320195	-0.085388272	-0.070700637	0.79539189	0.16078655	-0.24387153	0.8842465	0.030418546	-0.11897923	1.2822286	-0.15738964	-0.12336904	1.2848848	0.20723039	-0.19985561	1.3221283	0.022508244	-0.19078649	0.97174863	-0.19875513	-0.20021852	0.97475804	0.28085828	-0.070313656	0.76143028	-0.23772789	-0.028987775	0.79644885	0.30077636
188	0.748	0.054677414	0.0100323	-0.015772489	-0.3914272	0.09256937	0.14650402	-0.066922869	0.041041956	-0.043197757	-0.41701625	0.22803284	0.17263613	-0.071456821	0.055925318	0.044333869	-0.37950866	0.22070288	0.091153511	-0.14505488	0.01557934	-0.0017258292	-0.45129035	0.26881801	0.1107046	0.027124459	0.40285067	-0.065912213	-0.077434394	0.3798626	0.21255967	-0.0020039237	0.40424861	0.052449534	-0.080840509	0.36325619	0.078056681	-0.10214205	0.77878167	-0.14084963	-0.1588059	0.73835525	0.19823203	-0.041699443	0.81480685	-0.085844044	-0.064834798	0.79749345	0.16060485	-0.23771154	0.88628066	0.029940936	-0.11212867	1.2845163	-0.15718304	-0.11741782	1.2868981	0.20736932	-0.19330694	1.3241445	0.022537926	-0.18258411	0.97350008	-0.1993017	-0.19548731	0.97711692	0.28034923	-0.059326106	0.76439918	-0.23693225	-0.026520989	0.79694903	0.30085
189	0.752	0.054646837	0.010011794	-0.015741629	-0.3724873	0.092767558	0.1469744	-0.066940851	0.041116449	-0.043184623	-0.4013737	0.22728434	0.17252836	-0.071683791	0.056037581	0.04436978	-0.36388455	0.22067469	0.090776164	-0.14506819	0.015709293	-0.001696572	-0.4368037	0.26734073	0.11059593	0.028079613	0.40287472	-0.065715114	-0.064163643	0.38375153	0.21242965	-0.00085036054	0.40437328	0.052574829	-0.066856981	0.36669246	0.077935919	-0.097167805	0.78009555	-0.14116985	-0.15189194	0.74098415	0.19820451	-0.035995569	0.81647632	-0.086255694	-0.058937485	0.79963316	0.1603998	-0.23156258	0.88831329	0.02950732	-0.10531148	1.286834	-0.15695952	-0.11142201	1.2889165	0.20748535	-0.18676319	1.3261454	0.022579488	-0.17420246	0.97528165	-0.19968182	-0.19074459	0.97953522	0.27985855	-0.04831989	0.76744979	-0.23610845	-0.024062326	0.79752573	0.30094432
190	0.756	0.054614194	0.0099971299	-0.01572209	-0.35336447	0.09282391	0.14744249	-0.06695649	0.041202727	-0.043171308	-0.38574367	0.22623496	0.17247255	-0.071807978	0.056154988	0.04437121	-0.34816626	0.2205089	0.090311437	-0.1451415	0.015828972	-0.0017370715	-0.42242916	0.26556495	0.11050844	0.028938271	0.4029158	-0.065505918	-0.051010491	0.38775886	0.21224592	9.7552892e-07	0.40442057	0.052694117	-0.052861586	0.37034152	0.077747751	-0.092072946	0.78145661	-0.14145738	-0.14514694	0.74355007	0.19806128	-0.030034585	0.81821796	-0.086592016	-0.053004975	0.80180156	0.1601629	-0.22559045	0.89037287	0.029195288	-0.098524015	1.2891683	-0.15672157	-0.10538053	1.2909257	0.20757608	-0.18022445	1.3281333	0.022629026	-0.16566261	0.97708083	-0.1999296	-0.18604401	0.98200953	0.27938348	-0.037324483	0.77056731	-0.23524773	-0.021649281	0.79818414	0.30106118
191	0.76	0.054585492	0.010005765	-0.015738909	-0.33410146	0.092729463	0.1478954	-0.066966611	0.041299982	-0.043153594	-0.37011342	0.22492794	0.17244409	-0.071827877	0.056276249	0.044355809	-0.33222769	0.22022658	0.089835382	-0.14525465	0.015931701	-0.0018007258	-0.40814588	0.26348732	0.11044731	0.029716461	0.40296642	-0.065289193	-0.037977024	0.3918629	0.21201216	0.00053570071	0.40439276	0.052794774	-0.038999187	0.37416322	0.077388036	-0.086865409	0.7828565	-0.14171661	-0.13906993	0.74589945	0.19774085	-0.023913535	0.82001528	-0.086872655	-0.047030786	0.80398578	0.15988305	-0.21998817	0.89253497	0.029119625	-0.091764432	1.2915122	-0.15647336	-0.099302569	1.2929147	0.2076415	-0.17369012	1.3301126	0.022686454	-0.1571792	0.97888382	-0.20016955	-0.18143885	0.98452539	0.27892155	-0.026351913	0.77374134	-0.23433658	-0.01933751	0.79893337	0.30120133
192	0.764	0.054564804	0.010037739	-0.015787847	-0.31470358	0.092501599	0.14834814	-0.066971675	0.041406072	-0.043129465	-0.35442197	0.2234455	0.1724142	-0.071767699	0.056408181	0.044358581	-0.31610134	0.21977963	0.089410673	-0.14535001	0.016020606	-0.0017998293	-0.39379607	0.26109183	0.11036236	0.030456902	0.40302669	-0.065041684	-0.025059738	0.3960455	0.21173834	0.00089952105	0.40434329	0.052897022	-0.025309763	0.37813522	0.076905501	-0.081563004	0.78428424	-0.14193248	-0.1337966	0.74802822	0.1973262	-0.017980521	0.82182026	-0.08718417	-0.041002404	0.80618505	0.15955978	-0.2149432	0.89487795	0.029371176	-0.085031864	1.2938631	-0.1562174	-0.093196977	1.2948777	0.20768589	-0.16716439	1.3320802	0.02275063	-0.14896694	0.98067763	-0.20049842	-0.17694475	0.98706104	0.27846728	-0.015390793	0.77696851	-0.23337479	-0.017148933	0.79977198	0.30136205
193	0.768	0.054550386	0.010075814	-0.015839374	-0.29516185	0.092160658	0.14882143	-0.06697655	0.041520237	-0.043099918	-0.3386042	0.22183029	0.17237583	-0.071617806	0.056557484	0.044406658	-0.29992698	0.21905585	0.089047532	-0.14540152	0.01611681	-0.0017263132	-0.37912103	0.25832939	0.11016034	0.031196017	0.4031013	-0.064737721	-0.012257429	0.40029523	0.21143579	0.0012696794	0.40432928	0.052986751	-0.01174979	0.38227738	0.07641506	-0.076245483	0.78571349	-0.14205737	-0.12896298	0.75006707	0.19701209	-0.012547352	0.82359425	-0.087603117	-0.034909979	0.80841034	0.15920413	-0.21034993	0.8973568	0.029792829	-0.078326262	1.2962165	-0.15595438	-0.087065557	1.2968115	0.20771601	-0.16065369	1.3340226	0.022816304	-0.14097606	0.98245632	-0.20097481	-0.1725326	0.98959704	0.27801372	-0.0044379253	0.7802475	-0.23237591	-0.015028948	0.80068164	0.3015411
194	0.772	0.054539322	0.010103451	-0.015867498	-0.27545297	0.091724478	0.14933879	-0.066986086	0.041644965	-0.043064961	-0.32260985	0.22008845	0.17231869	-0.071389763	0.056718425	0.044507311	-0.28375865	0.2179812	0.088733732	-0.14543812	0.016255943	-0.0016873601	-0.36396609	0.25514965	0.10979476	0.031945084	0.40319401	-0.064375081	0.00042632208	0.40460444	0.21110895	0.0016465491	0.40436332	0.052950071	0.0015774948	0.38658696	0.075972683	-0.071018119	0.78709971	-0.1420129	-0.12397149	0.75216326	0.19692787	-0.0074892195	0.82536141	-0.08810164	-0.028756153	0.81067076	0.15883201	-0.20561287	0.89974593	0.029864772	-0.071649527	1.2985627	-0.15568436	-0.080908064	1.2987121	0.2077378	-0.15415729	1.3359242	0.022878862	-0.13295314	0.98422398	-0.20167998	-0.16815997	0.99212005	0.27755791	0.0064924767	0.78357415	-0.2313503	-0.012894995	0.80163776	0.30174002
195	0.776	0.054533712	0.01011743	-0.015866272	-0.25555127	0.091216115	0.14992373	-0.067001982	0.041783725	-0.043021141	-0.3064123	0.21822191	0.17219982	-0.071163762	0.056874362	0.044640942	-0.26755992	0.21659363	0.088438281	-0.14548501	0.016458913	-0.0017603871	-0.34849445	0.25157767	0.10934174	0.03270456	0.40330164	-0.063971418	0.01298504	0.40895985	0.21075227	0.0019003355	0.4044305	0.05270786	0.014394849	0.3910098	0.075585907	-0.0658793	0.78840875	-0.1417521	-0.11843872	0.75438585	0.19704983	-0.002339963	0.82718035	-0.088579627	-0.022555167	0.81296742	0.15845933	-0.20012478	0.90182073	0.029161283	-0.065002693	1.3008884	-0.15540675	-0.074727849	1.3005721	0.20775527	-0.14766733	1.3377759	0.022938438	-0.12477185	0.98599973	-0.20261637	-0.16380189	0.9946208	0.27710114	0.017387729	0.78693933	-0.2302945	-0.010715121	0.80262298	0.30195923
196	0.78	0.054537426	0.010123263	-0.015843891	-0.2354708	0.090662554	0.15058311	-0.067025453	0.04193679	-0.042967393	-0.29003827	0.21621817	0.17197716	-0.071003329	0.057017809	0.044771367	-0.25130302	0.21497448	0.0881507	-0.14552198	0.016697613	-0.0018600736	-0.333051	0.24771221	0.10891869	0.033463218	0.40341103	-0.063545315	0.02540983	0.4133393	0.21035816	0.0019665257	0.40451727	0.05245725	0.026532839	0.39549956	0.075283944	-0.060647008	0.78964332	-0.14133191	-0.11232659	0.7567404	0.19730831	0.0031996655	0.82905708	-0.088973639	-0.016320135	0.81529531	0.15809699	-0.19392649	0.90358109	0.027938869	-0.058379008	1.3031786	-0.15512138	-0.068534008	1.3023803	0.20777117	-0.14117927	1.3395756	0.022997645	-0.11657757	0.98780837	-0.2036172	-0.15945625	0.99709075	0.27664606	0.028249066	0.79033141	-0.22919772	-0.00850474	0.80362827	0.30219554
197	0.784	0.054548589	0.010124345	-0.015810669	-0.21526202	0.090081173	0.1513099	-0.067063442	0.042101234	-0.042914762	-0.27356581	0.21403622	0.17166847	-0.070886999	0.057161825	0.04487694	-0.23497418	0.21315569	0.087928718	-0.14552066	0.016916064	-0.0018276335	-0.31775339	0.24364373	0.10856094	0.0341845	0.40350229	-0.063105697	0.037692835	0.41771962	0.20992859	0.001832611	0.40460326	0.052575107	0.038198423	0.40005245	0.075070302	-0.055101278	0.79082136	-0.1408592	-0.10576904	0.75920771	0.19766819	0.0090416839	0.83092794	-0.089282684	-0.010049831	0.81764361	0.15774629	-0.1875359	0.9051885	0.026874441	-0.051758059	1.3054226	-0.15483318	-0.062338151	1.3041263	0.20778638	-0.13469776	1.3413235	0.023057982	-0.10856513	0.9896461	-0.20452835	-0.15513151	0.99952065	0.2761966	0.039089721	0.79374266	-0.22805641	-0.0062786904	0.80464834	0.3024481
198	0.788	0.054561697	0.010115707	-0.015763478	-0.19496693	0.089475471	0.15210172	-0.067130314	0.04227408	-0.042886556	-0.25706749	0.2116255	0.17134555	-0.070779044	0.057320989	0.044959751	-0.21855736	0.21114857	0.087820441	-0.1454862	0.01709415	-0.0016155175	-0.30243212	0.23940645	0.10823423	0.034836304	0.40355818	-0.0626561	0.049834664	0.42208924	0.20947087	0.0015119016	0.40466993	0.053170523	0.049960928	0.404684	0.074781426	-0.049221218	0.79194914	-0.14039887	-0.098941509	0.76174568	0.19810658	0.014928774	0.83272283	-0.089522373	-0.0037328305	0.81999895	0.15740441	-0.18130978	0.90676345	0.026316938	-0.045110791	1.3076161	-0.1545552	-0.056146181	1.3058062	0.20779901	-0.12823222	1.3430165	0.023117732	-0.10073635	0.99147401	-0.20537466	-0.15083279	1.0019025	0.27575451	0.049921686	0.79717084	-0.22688268	-0.0040367576	0.80567804	0.30271841
199	0.792	0.054578454	0.010087096	-0.015676452	-0.1746268	0.088840098	0.15295087	-0.067229504	0.042455079	-0.042893828	-0.24056408	0.20896009	0.17106647	-0.07071643	0.057486864	0.045022915	-0.20206169	0.20899689	0.08777107	-0.1454394	0.017266092	-0.0013154888	-0.28695562	0.2349802	0.10789816	0.035433335	0.4035719	-0.062203831	0.06184358	0.42645251	0.2089789	0.0011456515	0.40473301	0.053949599	0.062266601	0.40939915	0.07420062	-0.043230869	0.79304064	-0.14002002	-0.0919925	0.76430833	0.19860379	0.020697254	0.8344113	-0.089700265	0.0026311615	0.8223509	0.15707232	-0.17527534	0.90834914	0.026138308	-0.038428328	1.3097561	-0.15429699	-0.049955884	1.3074188	0.20780746	-0.12178843	1.3446483	0.023171845	-0.092936924	0.99325844	-0.20621519	-0.14655973	1.0042318	0.27531581	0.060744876	0.80061751	-0.22569359	-0.0017744119	0.80670858	0.30300542
